<svg xmlns="http://www.w3.org/2000/svg" viewBox="0 0 26.15 9.08"><defs><style>.cls-1{fill:#fff;}</style></defs><title>Asset 2</title><g id="Layer_2" data-name="Layer 2"><g id="Layer_1-2" data-name="Layer 1"><path class="cls-1" d="M7.68,5.83A3.51,3.51,0,0,1,6.51,8.2,3.71,3.71,0,0,1,4,9.08,3.64,3.64,0,0,1,1.07,7.87,4.8,4.8,0,0,1,0,4.59,5,5,0,0,1,1.07,1.24,3.6,3.6,0,0,1,4,0,3.88,3.88,0,0,1,6.5.83,3.32,3.32,0,0,1,7.68,3.08H5.88A1.62,1.62,0,0,0,5.28,2,2,2,0,0,0,4,1.56a1.84,1.84,0,0,0-1.58.8,3.76,3.76,0,0,0-.57,2.22A3.6,3.6,0,0,0,2.4,6.74,1.84,1.84,0,0,0,4,7.52a1.9,1.9,0,0,0,1.3-.45,1.9,1.9,0,0,0,.6-1.24Z"/><path class="cls-1" d="M10.71.23h2.08l3.05,8.62H13.93L13.35,7.1H10.08L9.52,8.85H7.66Zm-.13,5.38h2.29L11.72,2.15h0Z"/><path class="cls-1" d="M21,2.82a1.28,1.28,0,0,0-.54-1,2.13,2.13,0,0,0-1.28-.36,1.73,1.73,0,0,0-1.08.3,1.05,1.05,0,0,0-.38.85.65.65,0,0,0,.4.59,8.17,8.17,0,0,0,1.69.5,6.25,6.25,0,0,1,2.52,1,2.22,2.22,0,0,1,.63,1.76A2.28,2.28,0,0,1,22,8.37a4.28,4.28,0,0,1-2.59.71,3.91,3.91,0,0,1-2.55-.75,2.85,2.85,0,0,1-1-2.15h1.74a1.33,1.33,0,0,0,.5,1.05,2,2,0,0,0,1.3.37,2.66,2.66,0,0,0,1.35-.28.85.85,0,0,0,.48-.77.79.79,0,0,0-.35-.71,4.78,4.78,0,0,0-1.45-.48,7.45,7.45,0,0,1-2.74-1A1.94,1.94,0,0,1,16,2.72a2.43,2.43,0,0,1,.91-2A3.82,3.82,0,0,1,19.34,0a3.51,3.51,0,0,1,2.35.76,2.86,2.86,0,0,1,1,2.06Z"/><polygon class="cls-1" points="24.37 5.85 22.88 9.07 26.15 9.07 24.37 5.85"/></g></g></svg>